<?xml version="1.0" encoding="UTF-8"?>
<svg id="Layer_4" data-name="Layer 4" xmlns="http://www.w3.org/2000/svg" viewBox="0 0 1143.22 459.14">
  <defs>
    <style>
      .cls-1 {
        stroke-width: 0px;
      }
    </style>
  </defs>
  <g>
    <path class="cls-1" d="m146.3,220.68h-3.93c-.2-.48-.42-.77-.4-1.03.28-2.8,1.41-5.29,2.99-7.55,1.57-2.23,3.31-4.35,4.97-6.53,1.38-1.82,2.84-3.57,4.11-5.47,1.94-2.9,2.71-6.07,1.74-9.55-.9-3.21-1.73-6.45-2.62-9.67-.78-2.79-1.45-5.57-1.51-8.5-.09-4.08,1.33-7.51,4.41-10.09,2.08-1.74,4.42-3.21,6.75-4.64,2.33-1.43,4.78-2.67,7.18-3.97,4.48-2.43,7.01-6.14,7.48-11.25.22-2.42.51-4.84.84-7.24.31-2.26.56-4.54,1.1-6.74,1.38-5.64,4.76-9.47,10.55-10.76,2.96-.66,5.99-.98,8.99-1.42,2.41-.35,4.83-.59,7.22-.99,3.47-.59,6.24-2.37,8.14-5.35,1.38-2.18,2.61-4.46,3.92-6.69,1.39-2.35,2.66-4.79,4.21-7.04,3.77-5.48,9.02-7.45,15.5-6.01,2.52.56,4.99,1.32,7.48,1.99,2.2.59,4.4,1.2,6.6,1.77,3.59.91,6.95.29,10.01-1.78,1.51-1.02,2.95-2.15,4.39-3.28,1.8-1.4,3.53-2.9,5.35-4.27,8.31-6.19,13.94-6.17,22.32.1,1.7,1.28,3.3,2.68,4.98,3.99,1.43,1.12,2.89,2.23,4.38,3.28,3.17,2.23,6.64,2.91,10.4,1.9,2.35-.63,4.68-1.3,7.03-1.93,2.34-.64,4.68-1.34,7.05-1.84,6.28-1.3,11.44.56,15.18,5.83,1.41,1.98,2.59,4.11,3.82,6.21,1.3,2.23,2.49,4.53,3.8,6.76,2.21,3.79,5.47,6.01,9.88,6.53,4.07.48,8.13,1.06,12.2,1.6.75.1,1.51.18,2.25.35,6.04,1.43,10,5.03,11.22,11.2.7,3.57,1.09,7.2,1.6,10.81.09.6.12,1.21.16,1.82.41,5.75,2.97,10.1,8.21,12.77,2.44,1.24,4.85,2.55,7.19,3.96,2.07,1.26,4.15,2.56,6.02,4.1,3.4,2.8,4.93,6.56,4.53,10.92-.25,2.71-.86,5.4-1.49,8.05-.59,2.51-1.47,4.95-2.16,7.44-1.38,5.02-.71,9.62,2.73,13.7,1.57,1.85,3.12,3.73,4.57,5.69,1.53,2.07,3.05,4.18,4.35,6.4,1.07,1.81,1.98,3.78,1.48,6.3-1.12.1-2.28.2-3.14.28-.48-.43-.82-.58-.9-.82-1.05-3.41-2.95-6.31-5.18-9.04-1.64-2-3.23-4.04-4.85-6.05-4.11-5.09-5.47-10.76-3.64-17.1.76-2.62,1.6-5.23,2.28-7.88.56-2.2,1.06-4.43,1.37-6.68.47-3.47-.88-6.29-3.68-8.32-1.71-1.25-3.54-2.35-5.38-3.43-2.49-1.46-5.05-2.8-7.56-4.23-5.43-3.09-8.34-7.82-9.06-13.97-.31-2.72-.58-5.44-.95-8.15-.27-1.95-.56-3.92-1.03-5.83-.9-3.71-3.15-6.28-6.96-7.04-3.56-.71-7.19-1.13-10.79-1.68-2.1-.32-4.22-.57-6.3-.99-4.06-.82-7.33-2.96-9.65-6.37-1.62-2.38-2.99-4.93-4.47-7.41-1.4-2.35-2.68-4.78-4.21-7.03-2.47-3.62-5.91-5.14-10.29-4.06-3.09.76-6.19,1.54-9.25,2.42-2.79.8-5.56,1.52-8.47,1.69-3.62.21-6.97-.54-9.95-2.6-2.25-1.56-4.39-3.28-6.57-4.93-1.94-1.46-3.83-3-5.82-4.4-4.07-2.85-8.21-2.9-12.31-.05-1.74,1.22-3.43,2.52-5.11,3.82-1.81,1.39-3.58,2.82-5.36,4.24-5.04,4.03-10.71,4.78-16.8,3.17-2.94-.78-5.84-1.68-8.78-2.45-1.76-.46-3.54-.9-5.34-1.16-3.07-.44-5.78.48-7.8,2.84-1.37,1.6-2.55,3.41-3.64,5.22-1.48,2.48-2.84,5.03-4.17,7.59-3.41,6.54-8.98,9.64-16.14,10.32-2.72.26-5.44.59-8.16.89-.6.07-1.21.08-1.81.18-6.58,1.1-9.19,3.7-10.2,10.38-.62,4.05-1.1,8.13-1.61,12.2-.74,5.86-3.77,10.17-8.83,13.1-2.5,1.45-5.06,2.78-7.55,4.25-1.96,1.16-3.92,2.33-5.73,3.71-2.92,2.22-4,5.3-3.4,8.89.33,1.94.88,3.85,1.39,5.76.78,2.94,1.65,5.85,2.4,8.8,1.41,5.48.51,10.56-2.93,15.11-1.56,2.06-3.17,4.08-4.79,6.1-2.57,3.21-5.2,6.38-6.08,10.8Z"/>
    <path class="cls-1" d="m142.83,239.49h4.12c.24,2.94.49,5.64.69,8.33,2.78,37.85,18.67,69.17,47.24,94,18.92,16.44,40.97,26.57,65.67,30.74,11.12,1.88,22.32,2.34,33.64,1.35,24.36-2.12,46.6-10.03,66.47-24.17,30.29-21.55,48.89-50.76,55.74-87.29,1.17-6.26,1.39-12.68,2.03-19.03.12-1.19.17-2.39.27-3.86,1.32-.11,2.45-.2,3.67-.31.21.83.47,1.4.49,1.97.21,6.26-.39,12.46-1.36,18.62-4.74,30.08-17.76,56.06-39.17,77.7-19.89,20.11-43.81,32.95-71.54,38.71-12.3,2.56-24.74,3.42-37.22,2.5-35.06-2.6-65.24-16.23-90.08-41.15-19.28-19.33-31.78-42.47-37.66-69.16-1.6-7.29-2.46-14.69-2.98-22.12-.15-2.1-.03-4.22-.03-6.86h0Z"/>
    <path class="cls-1" d="m177.42,220.72h-3.61c-.21-.37-.49-.64-.48-.89.04-2.38,1.1-4.41,2.43-6.27,1.41-1.98,2.85-3.96,4.49-5.74,3.66-3.97,4.67-8.39,2.85-13.48-.41-1.14-.7-2.33-1.03-3.49-.32-1.17-.69-2.34-.93-3.53-1.38-6.94.32-10.91,6.34-14.66,2.06-1.28,4.19-2.48,6.38-3.53,4.4-2.11,6.72-5.54,7.04-10.38.06-.91.11-1.82.23-2.73.26-1.96.45-3.93.84-5.86,1.21-5.97,4.32-9.06,10.26-10.1,2.54-.45,5.12-.64,7.69-.99,1.35-.18,2.69-.46,4.03-.72,2.39-.46,4.16-1.83,5.43-3.84,1.13-1.8,2.1-3.7,3.21-5.51,1.27-2.07,2.46-4.21,3.94-6.12,2.18-2.8,5.13-4.33,8.75-3.96,2.41.24,4.79.72,7.16,1.24,2.22.49,4.43,1.09,6.59,1.78,2.89.92,5.41.11,7.77-1.47,1.39-.93,2.66-2.03,3.98-3.05,1.57-1.21,3.09-2.47,4.71-3.6,4.95-3.43,9.95-3.33,14.86.05,1.75,1.2,3.4,2.57,5.05,3.91,6.96,5.65,8.16,5.19,15.39,3.13,1.9-.54,3.78-1.22,5.71-1.58,6.74-1.27,10.48-.2,14.44,5.82.83,1.27,1.54,2.62,2.28,3.95.75,1.32,1.5,2.65,2.2,3.99,1.93,3.72,5.12,5.46,9.16,5.9,2.72.3,5.45.58,8.15.97,1.34.2,2.68.56,3.96,1.02,3.21,1.15,5.38,3.44,6.41,6.65.6,1.86.91,3.84,1.21,5.78.35,2.26.6,4.52.83,6.79.36,3.61,2.16,6.26,5.29,8.03,1.72.97,3.49,1.86,5.19,2.87,1.7,1.01,3.43,1.98,4.99,3.19,3.68,2.86,5.16,6.67,4.32,11.29-.3,1.64-.77,3.25-1.19,4.86-.42,1.62-.78,3.27-1.33,4.83-1.59,4.49-.46,8.32,2.56,11.83,1.78,2.07,3.44,4.26,5.04,6.48,1.41,1.98,2.52,4.14,2.54,6.63-1.4.97-2.7.74-4.16.31-1.18-3.47-3.51-6.28-5.84-9.09-1.16-1.4-2.23-2.88-3.28-4.37-1.81-2.61-2.53-5.54-2.08-8.67.32-2.24.85-4.47,1.39-6.68.43-1.77,1.11-3.48,1.48-5.27,1.03-4.96.23-6.9-3.97-9.61-1.66-1.07-3.45-1.93-5.15-2.94-1.7-1.01-3.42-1.99-5.03-3.13-2.59-1.83-4.21-4.39-4.86-7.47-.47-2.22-.68-4.51-1.03-6.76-.34-2.25-.57-4.53-1.11-6.74-.57-2.36-2.11-4.03-4.55-4.66-1.47-.37-2.96-.67-4.46-.88-2.56-.36-5.14-.57-7.69-.97-4.1-.65-7.46-2.57-9.69-6.15-1.29-2.06-2.41-4.22-3.66-6.31-.94-1.56-1.85-3.15-2.94-4.6-1.81-2.41-4.29-3.33-7.26-2.59-2.36.59-4.74,1.13-7.02,1.96-6.96,2.54-13.09,1.4-18.58-3.63-1.9-1.74-4.03-3.23-6.16-4.69-2.67-1.82-5.45-1.76-8.12.02-1.52,1.01-2.95,2.15-4.4,3.24-1.57,1.2-3.09,2.46-4.69,3.63-3.66,2.69-7.71,3.44-12.1,2.28-3.08-.82-6.15-1.72-9.24-2.47-4.83-1.17-6.95-.33-9.64,3.78-.91,1.4-1.66,2.9-2.48,4.35-.83,1.45-1.64,2.92-2.49,4.35-2.43,4.06-6.05,6.31-10.71,6.91-2.41.31-4.83.59-7.24.89-.76.09-1.52.12-2.27.28-4.71.97-6.43,2.74-7.18,7.57-.4,2.55-.69,5.12-.92,7.7-.52,5.73-3.1,10.08-8.26,12.8-1.61.85-3.21,1.73-4.79,2.65-1.31.76-2.62,1.54-3.88,2.39-2.69,1.81-3.66,4.39-3.05,7.53.32,1.64.81,3.24,1.24,4.85.57,2.2,1.16,4.41,1.73,6.61.99,3.78.16,7.24-1.94,10.43-1.08,1.65-2.31,3.21-3.56,4.74-2.21,2.71-4.45,5.39-5.48,8.91h-.01Z"/>
    <path class="cls-1" d="m172.94,239.5h3.79c.15.82.39,1.54.41,2.27.35,8.23,1.49,16.33,3.58,24.31,9.79,37.34,40.8,67.26,78.38,75.74,10.32,2.33,20.74,3.39,31.25,2.46,32.41-2.84,58.54-17.25,77.96-43.39,10.62-14.3,17.07-30.42,19.28-48.14.43-3.46.59-6.96.89-10.44.08-.89.24-1.76.4-2.86h3.82c.14.79.37,1.52.35,2.23-.2,11.34-2.19,22.36-5.88,33.08-12.54,36.4-43.21,63.98-80.85,71.91-59.28,12.49-112.95-23.17-128.91-75.56-2.76-9.06-4.42-18.31-4.66-27.79-.03-1.18.11-2.37.2-3.82h0Z"/>
    <path class="cls-1" d="m286.39,264.5c-.69,2.09-.38,3.92-.48,5.71-.1,1.79.31,3.63-.6,5.6-1.13-.06-2.26-.11-3.71-.18-.08-3.71-.15-7.17-.23-10.88-1.39-.42-2.66-.79-3.93-1.17-11.09-3.33-18-13.64-16.67-25.14,1.28-11.05,3.77-21.84,7.9-32.19,1.34-3.37,3.01-6.64,4.79-9.8,1.03-1.82,2.43-3.51,3.94-4.97,4.27-4.13,8.53-4.09,12.78.15,1.59,1.59,3.02,3.45,4.12,5.41,1.65,2.9,3.11,5.91,4.36,9,4.05,10.05,6.47,20.55,7.87,31.27,1.02,7.81-.95,14.76-6.63,20.45-2.73,2.74-5.99,4.63-9.7,5.74-1.16.35-2.33.61-3.82.99h0Zm8.2-30.24c-.6.59-1.2,1.24-1.86,1.81-1.61,1.39-3.29,2.7-4.89,4.1-2.3,2.02-2.61,4.52-.9,7.71,1.69-1.22,3.35-2.43,5.23-3.79.94,1.22,1.73,2.24,2.67,3.45-2.54,2.15-4.82,4.14-7.18,6.03-1.99,1.6-2.16,3.46-1.06,5.76.61-.04,1.23.02,1.78-.14,9.18-2.58,14.72-10.77,13.74-20.46-1.19-11.71-4.15-23-8.78-33.82-1.07-2.51-2.42-4.9-3.85-7.23-.78-1.27-1.85-2.42-3-3.39-1.79-1.51-3.61-1.52-5.38-.01-1.24,1.08-2.46,2.33-3.28,3.74-1.68,2.88-3.29,5.84-4.54,8.92-3.63,8.9-5.95,18.18-7.43,27.66-.51,3.29-.84,6.62-.29,9.98,1.27,7.67,7.59,13.79,15.43,14.67.87-2.33.72-4.31-1.51-5.95-1.71-1.26-3.31-2.68-4.91-4.08-.65-.57-1.19-1.28-1.95-2.12,1.06-1.07,1.96-1.98,2.76-2.8,2.26.91,3.32,3.15,5.74,3.47.55-2.11.41-4.04.14-6.12-2.81-2.44-5.64-4.9-8.42-7.31.64-1.61,1.27-2.79,2.74-3.14,2.06.62,3.09,2.96,5.52,3.24.74-3.54.66-6.71-1.51-9.62-.81-1.09-1.4-2.34-2.05-3.54-.12-.23-.08-.56-.12-.91.88-1.03,1.85-1.91,3.51-1.8.79,1.02,1.62,2.07,2.63,3.35,1.06-1.29,1.97-2.41,3.05-3.72,1.12.96,2.78.83,3.17,2.77-.79,1.45-1.57,3.1-2.53,4.65-1.73,2.77-1.55,5.66-1.01,8.76,2.59-.15,3.53-2.64,5.63-3.19,1.41.42,2.1,1.55,2.71,3.04h0Z"/>
    <path class="cls-1" d="m363.86,223.52c-1.39.07-2.69.13-3.67.18-1.95-2.64-3.52-5.06-5.39-7.21-3.45-3.95-4.1-8.33-2.59-13.2.49-1.6.96-3.2,1.36-4.82.69-2.84-.08-5.09-2.77-6.54-1.2-.65-2.34-1.43-3.58-1.99-5.39-2.46-8.13-6.59-8.28-12.53-.04-1.65-.44-3.3-.74-4.95-.36-1.98-1.53-3.27-3.53-3.71-1.18-.26-2.38-.5-3.57-.67-1.05-.15-2.12-.16-3.18-.27-4.77-.46-8.25-2.8-10.42-7.11-.82-1.63-1.74-3.2-2.66-4.78-1.39-2.37-3.37-3.42-6.14-2.65-1.17.32-2.38.54-3.51.94-5.96,2.14-11.35,1.51-15.97-3.14-.32-.32-.7-.58-1.06-.86-4.57-3.57-5.94-3.59-10.39-.13-.96.75-1.92,1.5-2.84,2.29-3.68,3.19-7.84,3.7-12.38,2.35-1.75-.52-3.53-.93-5.28-1.43-2.95-.85-5.03.24-6.47,2.82-.81,1.46-1.72,2.87-2.44,4.38-2.26,4.74-6.15,6.92-11.21,7.4-1.96.18-3.91.46-5.85.78-2.25.36-3.44,1.89-3.83,3.99-.42,2.24-.72,4.51-.92,6.78-.38,4.3-2.49,7.4-6.22,9.47-1.86,1.03-3.77,1.99-5.54,3.16-2.86,1.87-3.34,3.21-2.54,6.57.32,1.33.68,2.65,1.15,3.93,1.98,5.37,1.05,10.09-2.81,14.36-1.72,1.91-3.09,4.12-4.88,6.56h-3.39c-.74-1.83.05-3.19.85-4.43,1.15-1.78,2.36-3.56,3.81-5.11,2.8-3.02,3.22-6.31,1.93-10.11-.72-2.14-1.18-4.4-1.51-6.64-.54-3.69,1.03-6.54,4.06-8.55,1.77-1.17,3.61-2.27,5.52-3.18,3.38-1.62,4.96-4.27,5.18-7.93.1-1.81.44-3.61.72-5.42.89-5.67,4.42-7.7,8.83-8.37,2.1-.32,4.21-.64,6.33-.82,2.69-.22,4.5-1.64,5.77-3.9.59-1.06,1.17-2.14,1.78-3.19.6-1.05,1.19-2.12,1.88-3.12,2.6-3.83,6.15-5.26,10.67-4.07,2.2.58,4.42,1.14,6.59,1.82,2.39.75,4.49.33,6.43-1.17,1.08-.84,2.15-1.7,3.24-2.52,1.22-.9,2.43-1.83,3.72-2.62,3.14-1.93,6.34-1.92,9.49-.05,1.17.69,2.27,1.53,3.36,2.34,1.1.82,2.15,1.69,3.22,2.54,2.17,1.72,4.49,2.33,7.23,1.35,1.99-.72,4.08-1.2,6.15-1.68,4.98-1.16,8.09.06,10.95,4.36,1.17,1.77,2.15,3.67,3.17,5.54,1.4,2.57,3.35,4.24,6.43,4.42,1.82.1,3.62.46,5.43.7,5.83.74,8.67,3.44,9.59,9.24.26,1.65.36,3.32.49,4.99.29,3.48,1.91,6.01,5.11,7.49,1.1.52,2.17,1.1,3.2,1.74,1.17.71,2.35,1.42,3.39,2.3,2.64,2.24,3.78,5.11,3.05,8.55-.5,2.37-1.11,4.73-1.84,7.05-.96,3.04-.44,5.67,1.62,8.07,1.19,1.38,2.33,2.82,3.39,4.3,1.24,1.72,2.38,3.52,2.3,6.08h0Z"/>
    <path class="cls-1" d="m356.55,239.39h3.74c.16.7.4,1.27.4,1.85,0,7.83-1.34,15.48-4.05,22.78-10.55,28.37-30.66,46.21-60.46,51.57-43.65,7.85-82.3-22.05-89.75-61.81-.64-3.43-1.03-6.91-1.43-10.38-.13-1.17.05-2.37.09-3.79,1.04-.18,1.89-.46,2.74-.46,1.01,0,1.7.58,1.82,1.65.08.76.11,1.52.15,2.27,1.59,33.36,26.97,61.89,59.89,67.82,40.73,7.34,77.75-20.04,84.99-57.81.66-3.42.96-6.92,1.43-10.38.14-1.03.28-2.06.45-3.32h0Z"/>
  </g>
  <g>
    <path class="cls-1" d="m547.35,119.87c6.83,0,11.86,1.74,15.07,5.2,3.21,3.47,4.82,8.72,4.82,15.76v61.97c0,.82-.41,1.22-1.22,1.22h-2.45c-.82,0-1.22-.41-1.22-1.22v-63.04c0-5.51-1.22-9.46-3.67-11.86-2.45-2.4-6.33-3.6-11.63-3.6h-13.92v78.49c0,.82-.41,1.22-1.22,1.22h-2.45c-.82,0-1.22-.41-1.22-1.22v-78.49h-29.22v78.49c0,.82-.41,1.22-1.22,1.22h-2.45c-.82,0-1.22-.41-1.22-1.22v-81.7c0-.82.41-1.22,1.22-1.22.61,0,1.35.41,2.22,1.22.87.82,1.55,1.22,2.07,1.22s1.2-.41,2.07-1.22c.87-.82,1.66-1.22,2.37-1.22h23.87c.61,0,1.35.41,2.22,1.22.87.82,1.55,1.22,2.07,1.22s1.2-.41,2.07-1.22c.87-.82,1.66-1.22,2.37-1.22h10.71Z"/>
    <path class="cls-1" d="m605.43,204.02c-6.83,0-11.86-1.73-15.07-5.2-3.21-3.47-4.82-8.72-4.82-15.76v-11.02c0-7.04,1.61-12.29,4.82-15.76,3.21-3.47,8.24-5.2,15.07-5.2h15.45v-11.32c0-5.51-1.22-9.46-3.67-11.86-2.45-2.4-6.33-3.6-11.63-3.6h-15.3c-.82,0-1.22-.41-1.22-1.22v-1.99c0-.82.41-1.22,1.22-1.22h15.61c6.83,0,11.86,1.74,15.07,5.2,3.21,3.47,4.82,8.72,4.82,15.76v61.97c0,.82-.41,1.22-1.22,1.22-.71,0-1.51-.41-2.37-1.22-.87-.82-1.56-1.22-2.07-1.22s-1.17.41-1.99,1.22-1.58,1.22-2.29,1.22h-10.4Zm-14.99-19.89c0,5.51,1.22,9.46,3.67,11.86,2.45,2.4,6.32,3.6,11.63,3.6h15.15v-44.06h-15.15c-5.3,0-9.18,1.2-11.63,3.6-2.45,2.4-3.67,6.35-3.67,11.86v13.16Z"/>
    <path class="cls-1" d="m650.38,87.74c.82,0,1.22.41,1.22,1.22v30.91h16.98c6.83,0,11.86,1.74,15.07,5.2,3.21,3.47,4.82,8.72,4.82,15.76v61.97c0,.82-.41,1.22-1.22,1.22h-2.45c-.82,0-1.22-.41-1.22-1.22v-63.04c0-5.51-1.22-9.46-3.67-11.86-2.45-2.4-6.33-3.6-11.63-3.6h-16.68v78.49c0,.82-.41,1.22-1.22,1.22h-2.45c-.82,0-1.22-.41-1.22-1.22v-113.83c0-.82.41-1.22,1.22-1.22h2.45Z"/>
    <path class="cls-1" d="m726.14,204.02c-6.84,0-11.86-1.73-15.07-5.2-3.21-3.47-4.82-8.72-4.82-15.76v-11.02c0-7.04,1.61-12.29,4.82-15.76,3.21-3.47,8.24-5.2,15.07-5.2h15.45v-11.32c0-5.51-1.22-9.46-3.67-11.86-2.45-2.4-6.33-3.6-11.63-3.6h-15.3c-.82,0-1.22-.41-1.22-1.22v-1.99c0-.82.41-1.22,1.22-1.22h15.61c6.83,0,11.86,1.74,15.07,5.2,3.21,3.47,4.82,8.72,4.82,15.76v61.97c0,.82-.41,1.22-1.22,1.22-.71,0-1.51-.41-2.37-1.22-.87-.82-1.56-1.22-2.07-1.22s-1.17.41-1.99,1.22c-.82.82-1.58,1.22-2.29,1.22h-10.4Zm-14.99-19.89c0,5.51,1.22,9.46,3.67,11.86,2.45,2.4,6.32,3.6,11.63,3.6h15.15v-44.06h-15.15c-5.3,0-9.18,1.2-11.63,3.6-2.45,2.4-3.67,6.35-3.67,11.86v13.16Z"/>
    <path class="cls-1" d="m771.61,87.74c.82,0,1.22.41,1.22,1.22v113.83c0,.82-.41,1.22-1.22,1.22h-2.45c-.82,0-1.22-.41-1.22-1.22v-113.83c0-.82.41-1.22,1.22-1.22h2.45Z"/>
    <path class="cls-1" d="m798.47,93.86c.82,0,1.22.41,1.22,1.22v9.79c0,.82-.41,1.22-1.22,1.22h-3.06c-.82,0-1.22-.41-1.22-1.22v-9.79c0-.82.41-1.22,1.22-1.22h3.06Zm-.31,26.01c.81,0,1.22.41,1.22,1.22v81.7c0,.82-.41,1.22-1.22,1.22h-2.45c-.82,0-1.22-.41-1.22-1.22v-81.7c0-.82.41-1.22,1.22-1.22h2.45Z"/>
    <path class="cls-1" d="m821.64,119.87c.61,0,1.35.41,2.22,1.22.87.82,1.55,1.22,2.07,1.22s1.2-.41,2.07-1.22c.87-.82,1.66-1.22,2.37-1.22h11.93c6.83,0,11.86,1.74,15.07,5.2,3.21,3.47,4.82,8.72,4.82,15.76v61.97c0,.82-.41,1.22-1.22,1.22h-2.45c-.82,0-1.22-.41-1.22-1.22v-63.04c0-5.51-1.22-9.46-3.67-11.86-2.45-2.4-6.33-3.6-11.63-3.6h-16.68v78.49c0,.82-.41,1.22-1.22,1.22h-2.45c-.82,0-1.22-.41-1.22-1.22v-81.7c0-.82.41-1.22,1.22-1.22Z"/>
    <path class="cls-1" d="m899.94,204.02c-6.83,0-11.86-1.73-15.07-5.2-3.21-3.47-4.82-8.72-4.82-15.76v-11.02c0-7.04,1.61-12.29,4.82-15.76,3.21-3.47,8.24-5.2,15.07-5.2h15.45v-11.32c0-5.51-1.22-9.46-3.67-11.86-2.45-2.4-6.33-3.6-11.63-3.6h-15.3c-.82,0-1.22-.41-1.22-1.22v-1.99c0-.82.41-1.22,1.22-1.22h15.61c6.83,0,11.86,1.74,15.07,5.2,3.21,3.47,4.82,8.72,4.82,15.76v61.97c0,.82-.41,1.22-1.22,1.22-.71,0-1.51-.41-2.37-1.22-.87-.82-1.56-1.22-2.07-1.22s-1.17.41-1.99,1.22-1.58,1.22-2.3,1.22h-10.4Zm-14.99-19.89c0,5.51,1.22,9.46,3.67,11.86,2.45,2.4,6.32,3.6,11.63,3.6h15.15v-44.06h-15.15c-5.3,0-9.18,1.2-11.63,3.6-2.45,2.4-3.67,6.35-3.67,11.86v13.16Z"/>
  </g>
  <g>
    <path class="cls-1" d="m509.35,243.85c.82,0,1.22.41,1.22,1.22v1.99c0,.82-.41,1.22-1.22,1.22-3.67.21-6.38,1.05-8.11,2.52-1.74,1.48-2.6,3.85-2.6,7.11v11.93h10.71c.82,0,1.22.41,1.22,1.22v1.99c0,.82-.41,1.22-1.22,1.22h-10.71v78.49c0,.82-.41,1.22-1.22,1.22h-2.45c-.82,0-1.22-.41-1.22-1.22v-78.49h-6.58c-.82,0-1.22-.41-1.22-1.22v-1.99c0-.82.41-1.22,1.22-1.22h6.58v-10.86c0-9.79,5.2-14.84,15.61-15.15Z"/>
    <path class="cls-1" d="m541.45,269.86c6.83,0,11.86,1.74,15.07,5.2,3.21,3.47,4.82,8.72,4.82,15.76v42.23c0,7.04-1.61,12.29-4.82,15.76-3.21,3.47-8.24,5.2-15.07,5.2h-4.59c-6.83,0-11.86-1.73-15.07-5.2-3.21-3.47-4.82-8.72-4.82-15.76v-42.23c0-7.04,1.61-12.29,4.82-15.76,3.21-3.47,8.24-5.2,15.07-5.2h4.59Zm14.99,19.89c0-5.51-1.22-9.46-3.67-11.86-2.45-2.4-6.33-3.6-11.63-3.6h-3.98c-5.3,0-9.18,1.2-11.63,3.6-2.45,2.4-3.67,6.35-3.67,11.86v44.37c0,5.51,1.22,9.46,3.67,11.86,2.45,2.4,6.32,3.6,11.63,3.6h3.98c5.3,0,9.18-1.2,11.63-3.6,2.45-2.4,3.67-6.35,3.67-11.86v-44.37Z"/>
    <path class="cls-1" d="m603.12,354.01c-6.83,0-11.86-1.73-15.07-5.2-3.21-3.47-4.82-8.72-4.82-15.76v-61.96c0-.82.41-1.22,1.22-1.22h2.45c.81,0,1.22.41,1.22,1.22v63.04c0,5.51,1.22,9.46,3.67,11.86,2.45,2.4,6.32,3.6,11.63,3.6h17.44v-78.49c0-.82.41-1.22,1.22-1.22h2.45c.82,0,1.22.41,1.22,1.22v81.7c0,.82-.41,1.22-1.22,1.22-.71,0-1.51-.41-2.37-1.22-.87-.82-1.56-1.22-2.07-1.22s-1.17.41-1.99,1.22-1.58,1.22-2.29,1.22h-12.7Z"/>
    <path class="cls-1" d="m650.16,269.86c.61,0,1.35.41,2.22,1.22.87.82,1.55,1.22,2.06,1.22s1.2-.41,2.07-1.22c.87-.82,1.66-1.22,2.37-1.22h11.93c6.83,0,11.86,1.74,15.07,5.2,3.21,3.47,4.82,8.72,4.82,15.76v61.97c0,.82-.41,1.22-1.22,1.22h-2.45c-.82,0-1.22-.41-1.22-1.22v-63.04c0-5.51-1.22-9.46-3.67-11.86-2.45-2.4-6.33-3.6-11.63-3.6h-16.68v78.49c0,.82-.41,1.22-1.22,1.22h-2.45c-.82,0-1.22-.41-1.22-1.22v-81.7c0-.82.41-1.22,1.22-1.22Z"/>
    <path class="cls-1" d="m732.23,354.01c-6.83,0-11.86-1.73-15.07-5.2-3.21-3.47-4.82-8.72-4.82-15.76v-42.23c0-7.04,1.61-12.29,4.82-15.76,3.21-3.47,8.24-5.2,15.07-5.2h18.51v-30.91c0-.82.41-1.22,1.22-1.22h2.45c.81,0,1.22.41,1.22,1.22v113.83c0,.82-.41,1.22-1.22,1.22-.71,0-1.51-.41-2.37-1.22-.87-.82-1.56-1.22-2.07-1.22s-1.17.41-1.99,1.22c-.82.82-1.58,1.22-2.29,1.22h-13.46Zm-14.99-19.89c0,5.51,1.22,9.46,3.67,11.86,2.45,2.4,6.32,3.6,11.63,3.6h18.21v-75.28h-18.21c-5.3,0-9.18,1.2-11.63,3.6-2.45,2.4-3.67,6.35-3.67,11.86v44.37Z"/>
    <path class="cls-1" d="m795.9,354.01c-6.83,0-11.86-1.73-15.07-5.2-3.21-3.47-4.82-8.72-4.82-15.76v-11.02c0-7.04,1.61-12.29,4.82-15.76,3.21-3.47,8.24-5.2,15.07-5.2h15.45v-11.32c0-5.51-1.22-9.46-3.67-11.86-2.45-2.4-6.33-3.6-11.63-3.6h-15.3c-.82,0-1.22-.41-1.22-1.22v-1.99c0-.82.41-1.22,1.22-1.22h15.61c6.83,0,11.86,1.74,15.07,5.2,3.21,3.47,4.82,8.72,4.82,15.76v61.97c0,.82-.41,1.22-1.22,1.22-.71,0-1.51-.41-2.37-1.22-.87-.82-1.56-1.22-2.07-1.22s-1.17.41-1.99,1.22c-.82.82-1.58,1.22-2.29,1.22h-10.4Zm-14.99-19.89c0,5.51,1.22,9.46,3.67,11.86,2.45,2.4,6.32,3.6,11.63,3.6h15.15v-44.06h-15.15c-5.3,0-9.18,1.2-11.63,3.6-2.45,2.4-3.67,6.35-3.67,11.86v13.16Z"/>
    <path class="cls-1" d="m852.87,354.01c-10.92-.31-16.37-5.36-16.37-15.15v-64.57h-5.66c-.82,0-1.22-.41-1.22-1.22v-1.99c0-.82.41-1.22,1.22-1.22h5.66v-23.26c0-.82.41-1.22,1.22-1.22h2.45c.82,0,1.22.41,1.22,1.22v23.26h11.63c.81,0,1.22.41,1.22,1.22v1.99c0,.82-.41,1.22-1.22,1.22h-11.63v65.64c0,3.27.92,5.64,2.75,7.11,1.84,1.48,4.74,2.32,8.72,2.53.82,0,1.22.41,1.22,1.22v1.99c0,.82-.41,1.22-1.22,1.22Z"/>
    <path class="cls-1" d="m871.06,243.85c.82,0,1.22.41,1.22,1.22v9.79c0,.82-.41,1.22-1.22,1.22h-3.06c-.82,0-1.22-.41-1.22-1.22v-9.79c0-.82.41-1.22,1.22-1.22h3.06Zm-.3,26.01c.81,0,1.22.41,1.22,1.22v81.7c0,.82-.41,1.22-1.22,1.22h-2.45c-.82,0-1.22-.41-1.22-1.22v-81.7c0-.82.41-1.22,1.22-1.22h2.45Z"/>
    <path class="cls-1" d="m917.72,269.86c6.83,0,11.86,1.74,15.07,5.2,3.21,3.47,4.82,8.72,4.82,15.76v42.23c0,7.04-1.61,12.29-4.82,15.76-3.21,3.47-8.24,5.2-15.07,5.2h-4.59c-6.84,0-11.86-1.73-15.07-5.2-3.21-3.47-4.82-8.72-4.82-15.76v-42.23c0-7.04,1.61-12.29,4.82-15.76,3.21-3.47,8.23-5.2,15.07-5.2h4.59Zm14.99,19.89c0-5.51-1.22-9.46-3.67-11.86-2.45-2.4-6.33-3.6-11.63-3.6h-3.98c-5.3,0-9.18,1.2-11.63,3.6-2.45,2.4-3.67,6.35-3.67,11.86v44.37c0,5.51,1.22,9.46,3.67,11.86,2.45,2.4,6.32,3.6,11.63,3.6h3.98c5.3,0,9.18-1.2,11.63-3.6,2.45-2.4,3.67-6.35,3.67-11.86v-44.37Z"/>
    <path class="cls-1" d="m960.7,269.86c.61,0,1.35.41,2.22,1.22.87.82,1.55,1.22,2.07,1.22s1.2-.41,2.06-1.22c.87-.82,1.66-1.22,2.37-1.22h11.94c6.83,0,11.86,1.74,15.07,5.2,3.21,3.47,4.82,8.72,4.82,15.76v61.97c0,.82-.41,1.22-1.22,1.22h-2.45c-.82,0-1.22-.41-1.22-1.22v-63.04c0-5.51-1.22-9.46-3.67-11.86-2.45-2.4-6.33-3.6-11.63-3.6h-16.68v78.49c0,.82-.41,1.22-1.22,1.22h-2.45c-.82,0-1.22-.41-1.22-1.22v-81.7c0-.82.41-1.22,1.22-1.22Z"/>
  </g>
</svg>