<?xml version="1.0" encoding="UTF-8"?>
<svg id="Layer_2" data-name="Layer 2" xmlns="http://www.w3.org/2000/svg" viewBox="0 0 400 400">
  <defs>
    <style>
      .cls-1 {
        stroke-width: 0px;
      }

      .cls-1, .cls-2, .cls-3 {
        fill: none;
      }

      .cls-2 {
        stroke-miterlimit: 10;
      }

      .cls-2, .cls-3 {
        stroke: #993;
        stroke-width: 2px;
      }

      .cls-3 {
        stroke-miterlimit: 10;
      }
    </style>
  </defs>
  <g id="main">
    <rect class="cls-3" x="20" y="20" width="180" height="180"/>
    <rect class="cls-3" x="20" y="200" width="180" height="180"/>
    <rect class="cls-3" x="200" y="20" width="180" height="180"/>
    <rect class="cls-3" x="200" y="200" width="180" height="180"/>
    <rect class="cls-3" x="20" y="20" width="360" height="360"/>
    <rect class="cls-3" x="200" y="20" width="180" height="180"/>
    <rect class="cls-3" x="20" y="200" width="180" height="180"/>
    <rect class="cls-3" x="200" y="200" width="180" height="180"/>
    <rect class="cls-3" x="20" y="20" width="180" height="180"/>
    <circle class="cls-3" cx="200" cy="200" r="180"/>
    <path class="cls-3" d="m380,380c-99.41,0-180-80.59-180-180S280.59,20,380,20"/>
    <path class="cls-3" d="m20,20c99.41,0,180,80.59,180,180S119.41,380,20,380"/>
    <path class="cls-3" d="m380,20c0,99.41-80.59,180-180,180S20,119.41,20,20"/>
    <path class="cls-3" d="m20,380c0-99.41,80.59-180,180-180s180,80.59,180,180"/>
    <rect class="cls-2" x="72.72" y="72.72" width="254.56" height="254.56" transform="translate(-82.84 200) rotate(-45)"/>
    <rect class="cls-3" x="72.72" y="72.72" width="254.56" height="254.56"/>
    <circle class="cls-3" cx="200" cy="200" r="127.28"/>
    <circle class="cls-3" cx="200" cy="199.81" r="45"/>
    <rect class="cls-1" width="400" height="400"/>
  </g>
</svg>