<?xml version="1.0" encoding="utf-8"?>
<!-- Generator: Adobe Illustrator 27.9.0, SVG Export Plug-In . SVG Version: 6.00 Build 0)  -->
<svg version="1.1" id="Layer_2_00000039135789044231026170000011735896098564946320_"
	 xmlns="http://www.w3.org/2000/svg" xmlns:xlink="http://www.w3.org/1999/xlink" x="0px" y="0px" viewBox="0 0 515.3 639.5"
	 style="enable-background:new 0 0 515.3 639.5;" xml:space="preserve">
<style type="text/css">
	.st0{fill:#F8F8F9;}
</style>
<path class="st0" d="M121.1,140.7h-3.9c-0.2-0.5-0.4-0.8-0.4-1c0.3-2.8,1.4-5.3,3-7.5s3.3-4.4,5-6.5c1.4-1.8,2.8-3.6,4.1-5.5
	c1.9-2.9,2.7-6.1,1.7-9.6c-0.9-3.2-1.7-6.5-2.6-9.7c-0.8-2.8-1.4-5.6-1.5-8.5c-0.1-4.1,1.3-7.5,4.4-10.1c2.1-1.7,4.4-3.2,6.8-4.6
	c2.3-1.4,4.8-2.7,7.2-4c4.5-2.4,7-6.1,7.5-11.2c0.2-2.4,0.5-4.8,0.8-7.2c0.3-2.3,0.6-4.5,1.1-6.7c1.4-5.6,4.8-9.5,10.6-10.8
	c3-0.7,6-1,9-1.4c2.4-0.4,4.8-0.6,7.2-1c3.5-0.6,6.2-2.4,8.1-5.4c1.4-2.2,2.6-4.5,3.9-6.7c1.4-2.4,2.7-4.8,4.2-7
	c3.8-5.5,9-7.4,15.5-6c2.5,0.6,5,1.3,7.5,2c2.2,0.6,4.4,1.2,6.6,1.8c3.6,0.9,6.9,0.3,10-1.8c1.5-1,2.9-2.2,4.4-3.3
	c1.8-1.4,3.5-2.9,5.4-4.3c8.3-6.2,13.9-6.2,22.3,0.1c1.7,1.3,3.3,2.7,5,4c1.4,1.1,2.9,2.2,4.4,3.3c3.2,2.2,6.6,2.9,10.4,1.9
	c2.3-0.6,4.7-1.3,7-1.9c2.3-0.6,4.7-1.3,7.1-1.8c6.3-1.3,11.4,0.6,15.2,5.8c1.4,2,2.6,4.1,3.8,6.2c1.3,2.2,2.5,4.5,3.8,6.8
	c2.2,3.8,5.5,6,9.9,6.5c4.1,0.5,8.1,1.1,12.2,1.6c0.8,0.1,1.5,0.2,2.2,0.4c6,1.4,10,5,11.2,11.2c0.7,3.6,1.1,7.2,1.6,10.8
	c0.1,0.6,0.1,1.2,0.2,1.8c0.4,5.8,3,10.1,8.2,12.8c2.4,1.2,4.8,2.5,7.2,4c2.1,1.3,4.1,2.6,6,4.1c3.4,2.8,4.9,6.6,4.5,10.9
	c-0.2,2.7-0.9,5.4-1.5,8.1c-0.6,2.5-1.5,4.9-2.2,7.4c-1.4,5-0.7,9.6,2.7,13.7c1.6,1.9,3.1,3.7,4.6,5.7c1.5,2.1,3,4.2,4.3,6.4
	c1.1,1.8,2,3.8,1.5,6.3c-1.1,0.1-2.3,0.2-3.1,0.3c-0.5-0.4-0.8-0.6-0.9-0.8c-1-3.4-2.9-6.3-5.2-9c-1.6-2-3.2-4-4.9-6
	c-4.1-5.1-5.5-10.8-3.6-17.1c0.8-2.6,1.6-5.2,2.3-7.9c0.6-2.2,1.1-4.4,1.4-6.7c0.5-3.5-0.9-6.3-3.7-8.3c-1.7-1.2-3.5-2.4-5.4-3.4
	c-2.5-1.5-5-2.8-7.6-4.2c-5.4-3.1-8.3-7.8-9.1-14c-0.3-2.7-0.6-5.4-0.9-8.2c-0.3-2-0.6-3.9-1-5.8c-0.9-3.7-3.1-6.3-7-7
	c-3.6-0.7-7.2-1.1-10.8-1.7c-2.1-0.3-4.2-0.6-6.3-1c-4.1-0.8-7.3-3-9.6-6.4c-1.6-2.4-3-4.9-4.5-7.4c-1.4-2.3-2.7-4.8-4.2-7
	c-2.5-3.6-5.9-5.1-10.3-4.1c-3.1,0.8-6.2,1.5-9.2,2.4c-2.8,0.8-5.6,1.5-8.5,1.7c-3.6,0.2-7-0.5-9.9-2.6c-2.2-1.6-4.4-3.3-6.6-4.9
	c-1.9-1.5-3.8-3-5.8-4.4c-4.1-2.9-8.2-2.9-12.3,0c-1.7,1.2-3.4,2.5-5.1,3.8c-1.8,1.4-3.6,2.8-5.4,4.2c-5,4-10.7,4.8-16.8,3.2
	c-2.9-0.8-5.8-1.7-8.8-2.4c-1.8-0.5-3.5-0.9-5.3-1.2c-3.1-0.4-5.8,0.5-7.8,2.8c-1.4,1.6-2.5,3.4-3.6,5.2c-1.5,2.5-2.8,5-4.2,7.6
	c-3.4,6.5-9,9.6-16.1,10.3c-2.7,0.3-5.4,0.6-8.2,0.9c-0.6,0.1-1.2,0.1-1.8,0.2c-6.6,1.1-9.2,3.7-10.2,10.4
	c-0.6,4.1-1.1,8.1-1.6,12.2c-0.7,5.9-3.8,10.2-8.8,13.1c-2.5,1.4-5.1,2.8-7.5,4.2c-2,1.2-3.9,2.3-5.7,3.7c-2.9,2.2-4,5.3-3.4,8.9
	c0.3,1.9,0.9,3.8,1.4,5.8c0.8,2.9,1.6,5.9,2.4,8.8c1.4,5.5,0.5,10.6-2.9,15.1c-1.6,2.1-3.2,4.1-4.8,6.1
	C124.7,133.1,122,136.3,121.1,140.7z M117.7,159.5c0,2.6-0.1,4.8,0,6.9c0.5,7.4,1.4,14.8,3,22.1c5.9,26.7,18.4,49.8,37.7,69.2
	c24.8,24.9,55,38.5,90.1,41.1c12.5,0.9,24.9,0.1,37.2-2.5c27.7-5.8,51.7-18.6,71.5-38.7c21.4-21.6,34.4-47.6,39.2-77.7
	c1-6.2,1.6-12.4,1.4-18.6c0-0.6-0.3-1.1-0.5-2c-1.2,0.1-2.4,0.2-3.7,0.3c-0.1,1.5-0.1,2.7-0.3,3.9c-0.6,6.3-0.9,12.8-2,19
	c-6.9,36.5-25.5,65.7-55.7,87.3c-19.9,14.1-42.1,22-66.5,24.2c-11.3,1-22.5,0.5-33.6-1.3c-24.7-4.2-46.7-14.3-65.7-30.7
	c-28.6-24.8-44.5-56.2-47.2-94c-0.2-2.7-0.4-5.4-0.7-8.3h-4.2L117.7,159.5L117.7,159.5z M152.3,140.7c1-3.5,3.3-6.2,5.5-8.9
	c1.2-1.5,2.5-3.1,3.6-4.7c2.1-3.2,2.9-6.6,1.9-10.4c-0.6-2.2-1.2-4.4-1.7-6.6c-0.4-1.6-0.9-3.2-1.2-4.9c-0.6-3.1,0.4-5.7,3-7.5
	c1.3-0.8,2.6-1.6,3.9-2.4c1.6-0.9,3.2-1.8,4.8-2.6c5.2-2.7,7.7-7.1,8.3-12.8c0.2-2.6,0.5-5.1,0.9-7.7c0.7-4.8,2.5-6.6,7.2-7.6
	c0.7-0.2,1.5-0.2,2.3-0.3c2.4-0.3,4.8-0.6,7.2-0.9c4.7-0.6,8.3-2.8,10.7-6.9c0.9-1.4,1.7-2.9,2.5-4.4s1.6-3,2.5-4.4
	c2.7-4.1,4.8-4.9,9.6-3.8c3.1,0.8,6.2,1.7,9.2,2.5c4.4,1.2,8.4,0.4,12.1-2.3c1.6-1.2,3.1-2.4,4.7-3.6c1.4-1.1,2.9-2.2,4.4-3.2
	c2.7-1.8,5.5-1.8,8.1,0c2.1,1.5,4.3,2.9,6.2,4.7c5.5,5,11.6,6.2,18.6,3.6c2.3-0.8,4.7-1.4,7-2c3-0.7,5.4,0.2,7.3,2.6
	c1.1,1.5,2,3,2.9,4.6c1.2,2.1,2.4,4.2,3.7,6.3c2.2,3.6,5.6,5.5,9.7,6.2c2.6,0.4,5.1,0.6,7.7,1c1.5,0.2,3,0.5,4.5,0.9
	c2.4,0.6,4,2.3,4.5,4.7c0.5,2.2,0.8,4.5,1.1,6.7c0.3,2.2,0.6,4.5,1,6.8c0.6,3.1,2.3,5.6,4.9,7.5c1.6,1.1,3.3,2.1,5,3.1
	s3.5,1.9,5.1,2.9c4.2,2.7,5,4.7,4,9.6c-0.4,1.8-1.1,3.5-1.5,5.3c-0.5,2.2-1.1,4.4-1.4,6.7c-0.4,3.1,0.3,6.1,2.1,8.7
	c1,1.5,2.1,3,3.3,4.4c2.3,2.8,4.7,5.6,5.8,9.1c1.5,0.4,2.8,0.7,4.2-0.3c0-2.5-1.1-4.7-2.5-6.6c-1.6-2.2-3.3-4.4-5-6.5
	c-3-3.5-4.2-7.3-2.6-11.8c0.6-1.6,0.9-3.2,1.3-4.8c0.4-1.6,0.9-3.2,1.2-4.9c0.8-4.6-0.6-8.4-4.3-11.3c-1.6-1.2-3.3-2.2-5-3.2
	s-3.5-1.9-5.2-2.9c-3.1-1.8-4.9-4.4-5.3-8c-0.2-2.3-0.5-4.5-0.8-6.8c-0.3-1.9-0.6-3.9-1.2-5.8c-1-3.2-3.2-5.5-6.4-6.7
	c-1.3-0.5-2.6-0.8-4-1c-2.7-0.4-5.4-0.7-8.2-1c-4-0.4-7.2-2.2-9.2-5.9c-0.7-1.3-1.4-2.7-2.2-4c-0.7-1.3-1.4-2.7-2.3-3.9
	c-4-6-7.7-7.1-14.4-5.8c-1.9,0.4-3.8,1-5.7,1.6c-7.2,2.1-8.4,2.5-15.4-3.1c-1.7-1.3-3.3-2.7-5.1-3.9c-4.9-3.4-9.9-3.5-14.9,0
	c-1.6,1.1-3.1,2.4-4.7,3.6c-1.3,1-2.6,2.1-4,3c-2.4,1.6-4.9,2.4-7.8,1.5c-2.2-0.7-4.4-1.3-6.6-1.8c-2.4-0.5-4.8-1-7.2-1.2
	c-3.6-0.4-6.6,1.2-8.8,4c-1.5,1.9-2.7,4-3.9,6.1c-1.1,1.8-2.1,3.7-3.2,5.5c-1.3,2-3,3.4-5.4,3.8c-1.3,0.3-2.7,0.5-4,0.7
	c-2.6,0.4-5.1,0.5-7.7,1c-5.9,1-9,4.1-10.3,10.1c-0.4,1.9-0.6,3.9-0.8,5.9c-0.1,0.9-0.2,1.8-0.2,2.7c-0.3,4.8-2.6,8.3-7,10.4
	c-2.2,1.1-4.3,2.3-6.4,3.5c-6,3.7-7.7,7.7-6.3,14.7c0.2,1.2,0.6,2.4,0.9,3.5c0.3,1.2,0.6,2.4,1,3.5c1.8,5.1,0.8,9.5-2.9,13.5
	c-1.6,1.8-3.1,3.8-4.5,5.7c-1.3,1.9-2.4,3.9-2.4,6.3c0,0.2,0.3,0.5,0.5,0.9L152.3,140.7L152.3,140.7z M147.8,159.5
	c-0.1,1.4-0.2,2.6-0.2,3.8c0.2,9.5,1.9,18.7,4.7,27.8c16,52.4,69.6,88.1,128.9,75.6c37.6-7.9,68.3-35.5,80.8-71.9
	c3.7-10.7,5.7-21.7,5.9-33.1c0-0.7-0.2-1.4-0.4-2.2h-3.8c-0.2,1.1-0.3,2-0.4,2.9c-0.3,3.5-0.5,7-0.9,10.4
	c-2.2,17.7-8.7,33.8-19.3,48.1c-19.4,26.1-45.5,40.5-78,43.4c-10.5,0.9-20.9-0.1-31.2-2.5c-37.6-8.5-68.6-38.4-78.4-75.7
	c-2.1-8-3.2-16.1-3.6-24.3c0-0.7-0.3-1.4-0.4-2.3L147.8,159.5L147.8,159.5z M261.2,184.5c1.5-0.4,2.7-0.6,3.8-1c3.7-1.1,7-3,9.7-5.7
	c5.7-5.7,7.7-12.6,6.6-20.5c-1.4-10.7-3.8-21.2-7.9-31.3c-1.2-3.1-2.7-6.1-4.4-9c-1.1-2-2.5-3.8-4.1-5.4c-4.2-4.2-8.5-4.3-12.8-0.2
	c-1.5,1.5-2.9,3.2-3.9,5c-1.8,3.2-3.4,6.4-4.8,9.8c-4.1,10.3-6.6,21.1-7.9,32.2c-1.3,11.5,5.6,21.8,16.7,25.1
	c1.3,0.4,2.5,0.8,3.9,1.2c0.1,3.7,0.2,7.2,0.2,10.9c1.4,0.1,2.6,0.1,3.7,0.2c0.9-2,0.5-3.8,0.6-5.6
	C260.9,188.4,260.5,186.6,261.2,184.5L261.2,184.5z M269.4,154.2c-0.6-1.5-1.3-2.6-2.7-3c-2.1,0.6-3,3-5.6,3.2c-0.5-3.1-0.7-6,1-8.8
	c1-1.5,1.7-3.2,2.5-4.6c-0.4-1.9-2-1.8-3.2-2.8c-1.1,1.3-2,2.4-3,3.7c-1-1.3-1.8-2.3-2.6-3.4c-1.7-0.1-2.6,0.8-3.5,1.8
	c0,0.3,0,0.7,0.1,0.9c0.7,1.2,1.2,2.5,2.1,3.5c2.2,2.9,2.3,6.1,1.5,9.6c-2.4-0.3-3.5-2.6-5.5-3.2c-1.5,0.4-2.1,1.5-2.7,3.1
	c2.8,2.4,5.6,4.9,8.4,7.3c0.3,2.1,0.4,4-0.1,6.1c-2.4-0.3-3.5-2.6-5.7-3.5c-0.8,0.8-1.7,1.7-2.8,2.8c0.8,0.8,1.3,1.5,2,2.1
	c1.6,1.4,3.2,2.8,4.9,4.1c2.2,1.6,2.4,3.6,1.5,5.9c-7.8-0.9-14.2-7-15.4-14.7c-0.6-3.4-0.2-6.7,0.3-10c1.5-9.5,3.8-18.8,7.4-27.7
	c1.3-3.1,2.9-6,4.5-8.9c0.8-1.4,2-2.7,3.3-3.7c1.8-1.5,3.6-1.5,5.4,0c1.1,1,2.2,2.1,3,3.4c1.4,2.3,2.8,4.7,3.8,7.2
	c4.6,10.8,7.6,22.1,8.8,33.8c1,9.7-4.6,17.9-13.7,20.5c-0.6,0.2-1.2,0.1-1.8,0.1c-1.1-2.3-0.9-4.2,1.1-5.8c2.4-1.9,4.6-3.9,7.2-6
	c-0.9-1.2-1.7-2.2-2.7-3.5c-1.9,1.4-3.5,2.6-5.2,3.8c-1.7-3.2-1.4-5.7,0.9-7.7c1.6-1.4,3.3-2.7,4.9-4.1
	C268.2,155.5,268.8,154.8,269.4,154.2L269.4,154.2z M338.7,143.5c0.1-2.6-1.1-4.4-2.3-6.1c-1.1-1.5-2.2-2.9-3.4-4.3
	c-2.1-2.4-2.6-5-1.6-8.1c0.7-2.3,1.3-4.7,1.8-7c0.7-3.4-0.4-6.3-3.1-8.5c-1-0.9-2.2-1.6-3.4-2.3c-1-0.6-2.1-1.2-3.2-1.7
	c-3.2-1.5-4.8-4-5.1-7.5c-0.1-1.7-0.2-3.3-0.5-5c-0.9-5.8-3.8-8.5-9.6-9.2c-1.8-0.2-3.6-0.6-5.4-0.7c-3.1-0.2-5-1.9-6.4-4.4
	c-1-1.9-2-3.8-3.2-5.5c-2.9-4.3-6-5.5-10.9-4.4c-2.1,0.5-4.2,1-6.2,1.7c-2.7,1-5.1,0.4-7.2-1.4c-1.1-0.8-2.1-1.7-3.2-2.5
	s-2.2-1.7-3.4-2.3c-3.2-1.9-6.4-1.9-9.5,0c-1.3,0.8-2.5,1.7-3.7,2.6c-1.1,0.8-2.2,1.7-3.2,2.5c-1.9,1.5-4,1.9-6.4,1.2
	c-2.2-0.7-4.4-1.2-6.6-1.8c-4.5-1.2-8.1,0.2-10.7,4.1c-0.7,1-1.3,2.1-1.9,3.1c-0.6,1.1-1.2,2.1-1.8,3.2c-1.3,2.3-3.1,3.7-5.8,3.9
	c-2.1,0.2-4.2,0.5-6.3,0.8c-4.4,0.7-7.9,2.7-8.8,8.4c-0.3,1.8-0.6,3.6-0.7,5.4c-0.2,3.7-1.8,6.3-5.2,7.9c-1.9,0.9-3.8,2-5.5,3.2
	c-3,2-4.6,4.9-4.1,8.6c0.3,2.2,0.8,4.5,1.5,6.6c1.3,3.8,0.9,7.1-1.9,10.1c-1.4,1.6-2.7,3.3-3.8,5.1c-0.8,1.2-1.6,2.6-0.8,4.4h3.4
	c1.8-2.4,3.2-4.7,4.9-6.6c3.9-4.3,4.8-9,2.8-14.4c-0.5-1.3-0.8-2.6-1.2-3.9c-0.8-3.4-0.3-4.7,2.5-6.6c1.8-1.2,3.7-2.1,5.5-3.2
	c3.7-2.1,5.8-5.2,6.2-9.5c0.2-2.3,0.5-4.5,0.9-6.8c0.4-2.1,1.6-3.6,3.8-4c1.9-0.3,3.9-0.6,5.9-0.8c5.1-0.5,9-2.7,11.2-7.4
	c0.7-1.5,1.6-2.9,2.4-4.4c1.4-2.6,3.5-3.7,6.5-2.8c1.8,0.5,3.5,0.9,5.3,1.4c4.5,1.3,8.7,0.8,12.4-2.4c0.9-0.8,1.9-1.5,2.8-2.3
	c4.5-3.5,5.8-3.4,10.4,0.1c0.4,0.3,0.7,0.5,1.1,0.9c4.6,4.6,10,5.3,16,3.1c1.1-0.4,2.3-0.6,3.5-0.9c2.8-0.8,4.8,0.3,6.1,2.6
	c0.9,1.6,1.8,3.2,2.7,4.8c2.2,4.3,5.6,6.6,10.4,7.1c1.1,0.1,2.1,0.1,3.2,0.3c1.2,0.2,2.4,0.4,3.6,0.7c2,0.4,3.2,1.7,3.5,3.7
	c0.3,1.6,0.7,3.3,0.7,4.9c0.2,5.9,2.9,10.1,8.3,12.5c1.2,0.6,2.4,1.3,3.6,2c2.7,1.4,3.5,3.7,2.8,6.5c-0.4,1.6-0.9,3.2-1.4,4.8
	c-1.5,4.9-0.9,9.2,2.6,13.2c1.9,2.2,3.4,4.6,5.4,7.2C336,143.7,337.3,143.6,338.7,143.5L338.7,143.5z M331.4,159.4
	c-0.2,1.3-0.3,2.3-0.4,3.3c-0.5,3.5-0.8,7-1.4,10.4c-7.2,37.8-44.3,65.2-85,57.8c-32.9-5.9-58.3-34.5-59.9-67.8
	c0-0.8-0.1-1.5-0.1-2.3c-0.1-1.1-0.8-1.7-1.8-1.7c-0.8,0-1.7,0.3-2.7,0.5c0,1.4-0.2,2.6-0.1,3.8c0.4,3.5,0.8,6.9,1.4,10.4
	c7.5,39.8,46.1,69.7,89.8,61.8c29.8-5.4,49.9-23.2,60.5-51.6c2.7-7.3,4-15,4.1-22.8c0-0.6-0.2-1.2-0.4-1.8H331.4L331.4,159.4z
	 M94.1,405.4c-0.7,0-1.5,0.4-2.4,1.2c-0.9,0.8-1.6,1.2-2.1,1.2s-1.2-0.4-2.1-1.2c-0.9-0.8-1.6-1.2-2.2-1.2H61.5
	c-0.7,0-1.5,0.4-2.4,1.2c-0.9,0.8-1.6,1.2-2.1,1.2s-1.2-0.4-2.1-1.2c-0.9-0.8-1.6-1.2-2.2-1.2c-0.8,0-1.2,0.4-1.2,1.2v81.7
	c0,0.8,0.4,1.2,1.2,1.2h2.4c0.8,0,1.2-0.4,1.2-1.2v-78.5h29.2v78.5c0,0.8,0.4,1.2,1.2,1.2h2.4c0.8,0,1.2-0.4,1.2-1.2v-78.5h13.9
	c5.3,0,9.2,1.2,11.6,3.6s3.7,6.3,3.7,11.9v63c0,0.8,0.4,1.2,1.2,1.2h2.4c0.8,0,1.2-0.4,1.2-1.2v-62c0-7-1.6-12.3-4.8-15.8
	c-3.2-3.5-8.2-5.2-15.1-5.2H94.1V405.4z M173.3,489.5c0.7,0,1.5-0.4,2.3-1.2c0.8-0.8,1.5-1.2,2-1.2s1.2,0.4,2.1,1.2
	c0.9,0.8,1.7,1.2,2.4,1.2c0.8,0,1.2-0.4,1.2-1.2v-62c0-7-1.6-12.3-4.8-15.8s-8.2-5.2-15.1-5.2h-15.6c-0.8,0-1.2,0.4-1.2,1.2v2
	c0,0.8,0.4,1.2,1.2,1.2H163c5.3,0,9.2,1.2,11.6,3.6c2.4,2.4,3.7,6.3,3.7,11.9v11.3h-15.5c-6.8,0-11.9,1.7-15.1,5.2
	c-3.2,3.5-4.8,8.7-4.8,15.8v11c0,7,1.6,12.3,4.8,15.8s8.2,5.2,15.1,5.2H173.3z M147.9,456.5c0-5.5,1.2-9.5,3.7-11.9
	c2.4-2.4,6.3-3.6,11.6-3.6h15.1v44.1h-15.1c-5.3,0-9.2-1.2-11.6-3.6c-2.4-2.4-3.7-6.3-3.7-11.9V456.5z M205.4,373.2
	c-0.8,0-1.2,0.4-1.2,1.2v113.8c0,0.8,0.4,1.2,1.2,1.2h2.4c0.8,0,1.2-0.4,1.2-1.2v-78.5h16.7c5.3,0,9.2,1.2,11.6,3.6
	c2.4,2.4,3.7,6.3,3.7,11.9v63c0,0.8,0.4,1.2,1.2,1.2h2.4c0.8,0,1.2-0.4,1.2-1.2v-62c0-7-1.6-12.3-4.8-15.8s-8.2-5.2-15.1-5.2h-17
	v-30.9c0-0.8-0.4-1.2-1.2-1.2h-2.3L205.4,373.2L205.4,373.2z M294,489.5c0.7,0,1.5-0.4,2.3-1.2c0.8-0.8,1.5-1.2,2-1.2
	s1.2,0.4,2.1,1.2c0.9,0.8,1.7,1.2,2.4,1.2c0.8,0,1.2-0.4,1.2-1.2v-62c0-7-1.6-12.3-4.8-15.8c-3.2-3.5-8.2-5.2-15.1-5.2h-15.6
	c-0.8,0-1.2,0.4-1.2,1.2v2c0,0.8,0.4,1.2,1.2,1.2h15.3c5.3,0,9.2,1.2,11.6,3.6s3.7,6.3,3.7,11.9v11.3h-15.5
	c-6.8,0-11.9,1.7-15.1,5.2s-4.8,8.7-4.8,15.8v11c0,7,1.6,12.3,4.8,15.8c3.2,3.5,8.2,5.2,15.1,5.2H294z M268.6,456.5
	c0-5.5,1.2-9.5,3.7-11.9c2.4-2.4,6.3-3.6,11.6-3.6H299v44.1h-15.1c-5.3,0-9.2-1.2-11.6-3.6s-3.7-6.3-3.7-11.9L268.6,456.5
	L268.6,456.5z M326.6,373.2c-0.8,0-1.2,0.4-1.2,1.2v113.8c0,0.8,0.4,1.2,1.2,1.2h2.4c0.8,0,1.2-0.4,1.2-1.2V374.5
	c0-0.8-0.4-1.2-1.2-1.2L326.6,373.2L326.6,373.2z M352.9,379.3c-0.8,0-1.2,0.4-1.2,1.2v9.8c0,0.8,0.4,1.2,1.2,1.2h3.1
	c0.8,0,1.2-0.4,1.2-1.2v-9.8c0-0.8-0.4-1.2-1.2-1.2H352.9z M353.2,405.4c-0.8,0-1.2,0.4-1.2,1.2v81.7c0,0.8,0.4,1.2,1.2,1.2h2.4
	c0.8,0,1.2-0.4,1.2-1.2v-81.7c0-0.8-0.4-1.2-1.2-1.2L353.2,405.4L353.2,405.4z M377.9,406.6v81.7c0,0.8,0.4,1.2,1.2,1.2h2.4
	c0.8,0,1.2-0.4,1.2-1.2v-78.5h16.7c5.3,0,9.2,1.2,11.6,3.6s3.7,6.3,3.7,11.9v63c0,0.8,0.4,1.2,1.2,1.2h2.4c0.8,0,1.2-0.4,1.2-1.2
	v-62c0-7-1.6-12.3-4.8-15.8c-3.2-3.5-8.2-5.2-15.1-5.2h-11.9c-0.7,0-1.5,0.4-2.4,1.2c-0.9,0.8-1.6,1.2-2.1,1.2s-1.2-0.4-2.1-1.2
	c-0.9-0.8-1.6-1.2-2.2-1.2C378.3,405.4,377.9,405.8,377.9,406.6z M467.8,489.5c0.7,0,1.5-0.4,2.3-1.2c0.8-0.8,1.5-1.2,2-1.2
	s1.2,0.4,2.1,1.2c0.9,0.8,1.7,1.2,2.4,1.2c0.8,0,1.2-0.4,1.2-1.2v-62c0-7-1.6-12.3-4.8-15.8c-3.2-3.5-8.2-5.2-15.1-5.2h-15.6
	c-0.8,0-1.2,0.4-1.2,1.2v2c0,0.8,0.4,1.2,1.2,1.2h15.3c5.3,0,9.2,1.2,11.6,3.6s3.7,6.3,3.7,11.9v11.3h-15.5
	c-6.8,0-11.9,1.7-15.1,5.2s-4.8,8.7-4.8,15.8v11c0,7,1.6,12.3,4.8,15.8c3.2,3.5,8.2,5.2,15.1,5.2H467.8z M442.4,456.5
	c0-5.5,1.2-9.5,3.7-11.9c2.4-2.4,6.3-3.6,11.6-3.6h15.1v44.1h-15.1c-5.3,0-9.2-1.2-11.6-3.6s-3.7-6.3-3.7-11.9V456.5z M7.8,544.5
	v10.9H1.2c-0.8,0-1.2,0.4-1.2,1.2v2c0,0.8,0.4,1.2,1.2,1.2h6.6v78.5c0,0.8,0.4,1.2,1.2,1.2h2.4c0.8,0,1.2-0.4,1.2-1.2v-78.5h10.7
	c0.8,0,1.2-0.4,1.2-1.2v-2c0-0.8-0.4-1.2-1.2-1.2H12.7v-11.9c0-3.3,0.9-5.6,2.6-7.1s4.4-2.3,8.1-2.5c0.8,0,1.2-0.4,1.2-1.2v-2
	c0-0.8-0.4-1.2-1.2-1.2C13,529.7,7.8,534.7,7.8,544.5z M50.9,555.4c-6.8,0-11.9,1.7-15.1,5.2c-3.2,3.5-4.8,8.7-4.8,15.8v42.2
	c0,7,1.6,12.3,4.8,15.8s8.2,5.2,15.1,5.2h4.6c6.8,0,11.9-1.7,15.1-5.2s4.8-8.7,4.8-15.8v-42.2c0-7-1.6-12.3-4.8-15.8
	c-3.2-3.5-8.2-5.2-15.1-5.2H50.9z M70.5,619.7c0,5.5-1.2,9.5-3.7,11.9c-2.4,2.4-6.3,3.6-11.6,3.6h-4c-5.3,0-9.2-1.2-11.6-3.6
	c-2.4-2.4-3.7-6.3-3.7-11.9v-44.4c0-5.5,1.2-9.5,3.7-11.9c2.4-2.4,6.3-3.6,11.6-3.6h4c5.3,0,9.2,1.2,11.6,3.6
	c2.4,2.4,3.7,6.3,3.7,11.9V619.7z M129.9,639.5c0.7,0,1.5-0.4,2.3-1.2s1.5-1.2,2-1.2s1.2,0.4,2.1,1.2c0.9,0.8,1.7,1.2,2.4,1.2
	c0.8,0,1.2-0.4,1.2-1.2v-81.7c0-0.8-0.4-1.2-1.2-1.2h-2.4c-0.8,0-1.2,0.4-1.2,1.2v78.5h-17.4c-5.3,0-9.2-1.2-11.6-3.6
	c-2.4-2.4-3.7-6.3-3.7-11.9v-63c0-0.8-0.4-1.2-1.2-1.2h-2.4c-0.8,0-1.2,0.4-1.2,1.2v62c0,7,1.6,12.3,4.8,15.8
	c3.2,3.5,8.2,5.2,15.1,5.2L129.9,639.5L129.9,639.5z M163,556.6v81.7c0,0.8,0.4,1.2,1.2,1.2h2.4c0.8,0,1.2-0.4,1.2-1.2v-78.5h16.7
	c5.3,0,9.2,1.2,11.6,3.6c2.4,2.4,3.7,6.3,3.7,11.9v63c0,0.8,0.4,1.2,1.2,1.2h2.4c0.8,0,1.2-0.4,1.2-1.2v-62c0-7-1.6-12.3-4.8-15.8
	s-8.2-5.2-15.1-5.2h-11.9c-0.7,0-1.5,0.4-2.4,1.2s-1.6,1.2-2.1,1.2s-1.2-0.4-2.1-1.2c-0.9-0.8-1.6-1.2-2.2-1.2
	C163.4,555.4,163,555.8,163,556.6z M259.8,639.5c0.7,0,1.5-0.4,2.3-1.2s1.5-1.2,2-1.2s1.2,0.4,2.1,1.2s1.7,1.2,2.4,1.2
	c0.8,0,1.2-0.4,1.2-1.2V524.5c0-0.8-0.4-1.2-1.2-1.2H266c-0.8,0-1.2,0.4-1.2,1.2v30.9h-18.5c-6.8,0-11.9,1.7-15.1,5.2
	c-3.2,3.5-4.8,8.7-4.8,15.8v42.2c0,7,1.6,12.3,4.8,15.8s8.2,5.2,15.1,5.2h13.5V639.5z M231.3,575.3c0-5.5,1.2-9.5,3.7-11.9
	c2.4-2.4,6.3-3.6,11.6-3.6h18.2v75.3h-18.2c-5.3,0-9.2-1.2-11.6-3.6c-2.4-2.4-3.7-6.3-3.7-11.9L231.3,575.3L231.3,575.3z
	 M320.4,639.5c0.7,0,1.5-0.4,2.3-1.2s1.5-1.2,2-1.2s1.2,0.4,2.1,1.2s1.7,1.2,2.4,1.2c0.8,0,1.2-0.4,1.2-1.2v-62
	c0-7-1.6-12.3-4.8-15.8c-3.2-3.5-8.2-5.2-15.1-5.2h-15.6c-0.8,0-1.2,0.4-1.2,1.2v2c0,0.8,0.4,1.2,1.2,1.2h15.3
	c5.3,0,9.2,1.2,11.6,3.6c2.4,2.4,3.7,6.3,3.7,11.9v11.3H310c-6.8,0-11.9,1.7-15.1,5.2s-4.8,8.7-4.8,15.8v11c0,7,1.6,12.3,4.8,15.8
	c3.2,3.5,8.2,5.2,15.1,5.2H320.4z M295,606.5c0-5.5,1.2-9.5,3.7-11.9c2.4-2.4,6.3-3.6,11.6-3.6h15.1v44.1h-15.1
	c-5.3,0-9.2-1.2-11.6-3.6c-2.4-2.4-3.7-6.3-3.7-11.9V606.5z M368.2,638.3v-2c0-0.8-0.4-1.2-1.2-1.2c-4-0.2-6.9-1-8.7-2.5
	c-1.8-1.5-2.8-3.8-2.8-7.1v-65.6h11.6c0.8,0,1.2-0.4,1.2-1.2v-2c0-0.8-0.4-1.2-1.2-1.2h-11.6v-23.3c0-0.8-0.4-1.2-1.2-1.2h-2.4
	c-0.8,0-1.2,0.4-1.2,1.2v23.3H345c-0.8,0-1.2,0.4-1.2,1.2v2c0,0.8,0.4,1.2,1.2,1.2h5.7v64.6c0,9.8,5.5,14.8,16.4,15.1
	C367.7,639.5,368.2,639.1,368.2,638.3z M382.1,529.4c-0.8,0-1.2,0.4-1.2,1.2v9.8c0,0.8,0.4,1.2,1.2,1.2h3.1c0.8,0,1.2-0.4,1.2-1.2
	v-9.8c0-0.8-0.4-1.2-1.2-1.2H382.1z M382.4,555.4c-0.8,0-1.2,0.4-1.2,1.2v81.7c0,0.8,0.4,1.2,1.2,1.2h2.4c0.8,0,1.2-0.4,1.2-1.2
	v-81.7c0-0.8-0.4-1.2-1.2-1.2H382.4z M427.2,555.4c-6.8,0-11.9,1.7-15.1,5.2s-4.8,8.7-4.8,15.8v42.2c0,7,1.6,12.3,4.8,15.8
	c3.2,3.5,8.2,5.2,15.1,5.2h4.6c6.8,0,11.9-1.7,15.1-5.2s4.8-8.7,4.8-15.8v-42.2c0-7-1.6-12.3-4.8-15.8c-3.2-3.5-8.2-5.2-15.1-5.2
	H427.2z M446.8,619.7c0,5.5-1.2,9.5-3.7,11.9c-2.4,2.4-6.3,3.6-11.6,3.6h-4c-5.3,0-9.2-1.2-11.6-3.6c-2.4-2.4-3.7-6.3-3.7-11.9
	v-44.4c0-5.5,1.2-9.5,3.7-11.9c2.4-2.4,6.3-3.6,11.6-3.6h4c5.3,0,9.2,1.2,11.6,3.6c2.4,2.4,3.7,6.3,3.7,11.9V619.7z M473.5,556.6
	v81.7c0,0.8,0.4,1.2,1.2,1.2h2.4c0.8,0,1.2-0.4,1.2-1.2v-78.5H495c5.3,0,9.2,1.2,11.6,3.6c2.4,2.4,3.7,6.3,3.7,11.9v63
	c0,0.8,0.4,1.2,1.2,1.2h2.4c0.8,0,1.2-0.4,1.2-1.2v-62c0-7-1.6-12.3-4.8-15.8s-8.2-5.2-15.1-5.2h-11.9c-0.7,0-1.5,0.4-2.4,1.2
	s-1.6,1.2-2.1,1.2s-1.2-0.4-2.1-1.2s-1.6-1.2-2.2-1.2C473.9,555.4,473.5,555.8,473.5,556.6z"/>
</svg>
